<?xml version="1.0" encoding="UTF-8" standalone="no"?>
<!DOCTYPE svg PUBLIC "-//W3C//DTD SVG 1.1//EN"
 "http://www.w3.org/Graphics/SVG/1.1/DTD/svg11.dtd">
<!-- Generated by graphviz version 2.40.1 (20161225.0304)
 -->
<!-- Title: dependencies Pages: 1 -->
<svg width="562pt" height="349pt"
 viewBox="0.00 0.00 562.00 349.00" xmlns="http://www.w3.org/2000/svg" xmlns:xlink="http://www.w3.org/1999/xlink">
<g id="graph0" class="graph" transform="scale(1 1) rotate(0) translate(4 345)">
<title>dependencies</title>
<polygon fill="#ffffff" stroke="transparent" points="-4,4 -4,-345 558,-345 558,4 -4,4"/>
<text text-anchor="start" x="256.0091" y="-42.4" font-family="sans-serif" font-weight="bold" font-size="14.00" fill="#000000">Legend</text>
<polygon fill="#ffffb3" stroke="transparent" points="43,-10 43,-30 63,-30 63,-10 43,-10"/>
<text text-anchor="start" x="66.629" y="-15.4" font-family="sans-serif" font-size="14.00" fill="#000000"> &#160;Declarations</text>
<polygon fill="#8dd3c7" stroke="transparent" points="156,-10 156,-30 176,-30 176,-10 156,-10"/>
<text text-anchor="start" x="179.7251" y="-15.4" font-family="sans-serif" font-size="14.00" fill="#000000"> &#160;Module</text>
<polygon fill="#80b1d3" stroke="transparent" points="242,-10 242,-30 262,-30 262,-10 242,-10"/>
<text text-anchor="start" x="265.7812" y="-15.4" font-family="sans-serif" font-size="14.00" fill="#000000"> &#160;Bootstrap</text>
<polygon fill="#fdb462" stroke="transparent" points="339,-10 339,-30 359,-30 359,-10 339,-10"/>
<text text-anchor="start" x="362.6732" y="-15.4" font-family="sans-serif" font-size="14.00" fill="#000000"> &#160;Providers</text>
<polygon fill="#fb8072" stroke="transparent" points="435,-10 435,-30 455,-30 455,-10 435,-10"/>
<text text-anchor="start" x="458.7258" y="-15.4" font-family="sans-serif" font-size="14.00" fill="#000000"> &#160;Exports</text>
<g id="clust1" class="cluster">
<title>cluster_AppModule</title>
<polygon fill="none" stroke="#000000" stroke-dasharray="1,5" points="8,-70 8,-333 546,-333 546,-70 8,-70"/>
</g>
<g id="clust2" class="cluster">
<title>cluster_AppModule_declarations</title>
<polygon fill="none" stroke="#000000" points="146,-143 146,-195 538,-195 538,-143 146,-143"/>
</g>
<g id="clust3" class="cluster">
<title>cluster_AppModule_AppComponent_providers</title>
<polygon fill="none" stroke="#000000" points="260,-78 260,-130 538,-130 538,-78 260,-78"/>
</g>
<g id="clust6" class="cluster">
<title>cluster_AppModule_imports</title>
<polygon fill="none" stroke="#000000" points="16,-143 16,-195 138,-195 138,-143 16,-143"/>
</g>
<g id="clust8" class="cluster">
<title>cluster_AppModule_bootstrap</title>
<polygon fill="none" stroke="#000000" points="211,-273 211,-325 335,-325 335,-273 211,-273"/>
</g>
<!-- AppComponent -->
<g id="node1" class="node">
<title>AppComponent</title>
<polygon fill="#ffffb3" stroke="#000000" points="529.9399,-187 424.0601,-187 424.0601,-151 529.9399,-151 529.9399,-187"/>
<text text-anchor="middle" x="477" y="-164.8" font-family="Times,serif" font-size="14.00" fill="#000000">AppComponent</text>
</g>
<!-- AppModule -->
<g id="node4" class="node">
<title>AppModule</title>
<polygon fill="#8dd3c7" stroke="#000000" points="314.6571,-252 311.6571,-256 290.6571,-256 287.6571,-252 231.3429,-252 231.3429,-216 314.6571,-216 314.6571,-252"/>
<text text-anchor="middle" x="273" y="-229.8" font-family="Times,serif" font-size="14.00" fill="#000000">AppModule</text>
</g>
<!-- AppComponent&#45;&gt;AppModule -->
<g id="edge1" class="edge">
<title>AppComponent&#45;&gt;AppModule</title>
<path fill="none" stroke="#000000" d="M477,-187.1061C477,-206.3391 477,-234 477,-234 477,-234 324.7747,-234 324.7747,-234"/>
<polygon fill="#000000" stroke="#000000" points="324.7747,-230.5001 314.7747,-234 324.7747,-237.5001 324.7747,-230.5001"/>
</g>
<!-- ProductsComponent -->
<g id="node2" class="node">
<title>ProductsComponent</title>
<polygon fill="#ffffb3" stroke="#000000" points="406.3258,-187 275.6742,-187 275.6742,-151 406.3258,-151 406.3258,-187"/>
<text text-anchor="middle" x="341" y="-164.8" font-family="Times,serif" font-size="14.00" fill="#000000">ProductsComponent</text>
</g>
<!-- ProductsComponent&#45;&gt;AppModule -->
<g id="edge4" class="edge">
<title>ProductsComponent&#45;&gt;AppModule</title>
<path fill="none" stroke="#000000" d="M295.3327,-187.1061C295.3327,-187.1061 295.3327,-205.991 295.3327,-205.991"/>
<polygon fill="#000000" stroke="#000000" points="291.8328,-205.9909 295.3327,-215.991 298.8328,-205.991 291.8328,-205.9909"/>
</g>
<!-- AdsComponent -->
<g id="node3" class="node">
<title>AdsComponent</title>
<polygon fill="#ffffb3" stroke="#000000" points="257.8837,-187 154.1163,-187 154.1163,-151 257.8837,-151 257.8837,-187"/>
<text text-anchor="middle" x="206" y="-164.8" font-family="Times,serif" font-size="14.00" fill="#000000">AdsComponent</text>
</g>
<!-- AdsComponent&#45;&gt;AppModule -->
<g id="edge5" class="edge">
<title>AdsComponent&#45;&gt;AppModule</title>
<path fill="none" stroke="#000000" d="M244.5568,-187.1061C244.5568,-187.1061 244.5568,-205.991 244.5568,-205.991"/>
<polygon fill="#000000" stroke="#000000" points="241.0569,-205.9909 244.5568,-215.991 248.0569,-205.991 241.0569,-205.9909"/>
</g>
<!-- AppComponent  -->
<g id="node8" class="node">
<title>AppComponent </title>
<polygon fill="#80b1d3" stroke="#000000" points="327.439,-317 218.561,-317 218.561,-281 327.439,-281 327.439,-317"/>
<text text-anchor="middle" x="273" y="-294.8" font-family="Times,serif" font-size="14.00" fill="#000000">AppComponent </text>
</g>
<!-- AppModule&#45;&gt;AppComponent  -->
<g id="edge7" class="edge">
<title>AppModule&#45;&gt;AppComponent </title>
<path fill="none" stroke="#000000" stroke-dasharray="1,5" d="M273,-252.1061C273,-252.1061 273,-270.991 273,-270.991"/>
<polygon fill="#000000" stroke="#000000" points="269.5001,-270.9909 273,-280.991 276.5001,-270.991 269.5001,-270.9909"/>
</g>
<!-- ProductService -->
<g id="node5" class="node">
<title>ProductService</title>
<ellipse fill="#fdb462" stroke="#000000" cx="460" cy="-104" rx="70.0616" ry="18"/>
<text text-anchor="middle" x="460" y="-99.8" font-family="Times,serif" font-size="14.00" fill="#000000">ProductService</text>
</g>
<!-- ProductService&#45;&gt;AppComponent -->
<g id="edge2" class="edge">
<title>ProductService&#45;&gt;AppComponent</title>
<path fill="none" stroke="#000000" d="M494.5732,-119.7347C494.5732,-119.7347 494.5732,-140.6451 494.5732,-140.6451"/>
<polygon fill="#000000" stroke="#000000" points="491.0733,-140.645 494.5732,-150.6451 498.0733,-140.6451 491.0733,-140.645"/>
</g>
<!-- AdService -->
<g id="node6" class="node">
<title>AdService</title>
<ellipse fill="#fdb462" stroke="#000000" cx="320" cy="-104" rx="51.5843" ry="18"/>
<text text-anchor="middle" x="320" y="-99.8" font-family="Times,serif" font-size="14.00" fill="#000000">AdService</text>
</g>
<!-- AdService&#45;&gt;AppComponent -->
<g id="edge3" class="edge">
<title>AdService&#45;&gt;AppComponent</title>
<path fill="none" stroke="#000000" d="M323.8145,-122.0449C323.8145,-129.749 323.8145,-137 323.8145,-137 323.8145,-137 459.4268,-137 459.4268,-137 459.4268,-137 459.4268,-140.7566 459.4268,-140.7566"/>
<polygon fill="#000000" stroke="#000000" points="455.9269,-140.7566 459.4268,-150.7566 462.9269,-140.7566 455.9269,-140.7566"/>
</g>
<!-- BrowserModule -->
<g id="node7" class="node">
<title>BrowserModule</title>
<polygon fill="#8dd3c7" stroke="#000000" points="130.4734,-187 127.4734,-191 106.4734,-191 103.4734,-187 23.5266,-187 23.5266,-151 130.4734,-151 130.4734,-187"/>
<text text-anchor="middle" x="77" y="-164.8" font-family="Times,serif" font-size="14.00" fill="#000000">BrowserModule</text>
</g>
<!-- BrowserModule&#45;&gt;AppModule -->
<g id="edge6" class="edge">
<title>BrowserModule&#45;&gt;AppModule</title>
<path fill="none" stroke="#000000" d="M77,-187.1061C77,-206.3391 77,-234 77,-234 77,-234 220.9531,-234 220.9531,-234"/>
<polygon fill="#000000" stroke="#000000" points="220.9531,-237.5001 230.9531,-234 220.953,-230.5001 220.9531,-237.5001"/>
</g>
</g>
</svg>
