<?xml version="1.0" encoding="UTF-8" standalone="no"?>
<!DOCTYPE svg PUBLIC "-//W3C//DTD SVG 1.1//EN"
 "http://www.w3.org/Graphics/SVG/1.1/DTD/svg11.dtd">
<!-- Generated by graphviz version 2.40.1 (20161225.0304)
 -->
<!-- Title: dependencies Pages: 1 -->
<svg width="790pt" height="352pt"
 viewBox="0.00 0.00 790.00 352.00" xmlns="http://www.w3.org/2000/svg" xmlns:xlink="http://www.w3.org/1999/xlink">
<g id="graph0" class="graph" transform="scale(1 1) rotate(0) translate(4 348)">
<title>dependencies</title>
<polygon fill="#ffffff" stroke="transparent" points="-4,4 -4,-348 786,-348 786,4 -4,4"/>
<text text-anchor="start" x="370.0091" y="-42.4" font-family="sans-serif" font-weight="bold" font-size="14.00" fill="#000000">Legend</text>
<polygon fill="#ffffb3" stroke="transparent" points="157,-10 157,-30 177,-30 177,-10 157,-10"/>
<text text-anchor="start" x="180.629" y="-15.4" font-family="sans-serif" font-size="14.00" fill="#000000"> &#160;Declarations</text>
<polygon fill="#8dd3c7" stroke="transparent" points="270,-10 270,-30 290,-30 290,-10 270,-10"/>
<text text-anchor="start" x="293.7251" y="-15.4" font-family="sans-serif" font-size="14.00" fill="#000000"> &#160;Module</text>
<polygon fill="#80b1d3" stroke="transparent" points="356,-10 356,-30 376,-30 376,-10 356,-10"/>
<text text-anchor="start" x="379.7812" y="-15.4" font-family="sans-serif" font-size="14.00" fill="#000000"> &#160;Bootstrap</text>
<polygon fill="#fdb462" stroke="transparent" points="453,-10 453,-30 473,-30 473,-10 453,-10"/>
<text text-anchor="start" x="476.6732" y="-15.4" font-family="sans-serif" font-size="14.00" fill="#000000"> &#160;Providers</text>
<polygon fill="#fb8072" stroke="transparent" points="549,-10 549,-30 569,-30 569,-10 549,-10"/>
<text text-anchor="start" x="572.7258" y="-15.4" font-family="sans-serif" font-size="14.00" fill="#000000"> &#160;Exports</text>
<g id="clust1" class="cluster">
<title>cluster_Angular2FirstappRoutingModule</title>
<polygon fill="none" stroke="#000000" stroke-dasharray="1,5" points="8,-70 8,-268 228,-268 228,-70 8,-70"/>
</g>
<g id="clust3" class="cluster">
<title>cluster_Angular2FirstappRoutingModule_imports</title>
<polygon fill="none" stroke="#000000" points="21,-78 21,-130 215,-130 215,-78 21,-78"/>
</g>
<g id="clust4" class="cluster">
<title>cluster_Angular2FirstappRoutingModule_exports</title>
<polygon fill="none" stroke="#000000" points="59,-208 59,-260 177,-260 177,-208 59,-208"/>
</g>
<g id="clust7" class="cluster">
<title>cluster_AppModule</title>
<polygon fill="none" stroke="#000000" stroke-dasharray="1,5" points="236,-70 236,-336 774,-336 774,-70 236,-70"/>
</g>
<g id="clust8" class="cluster">
<title>cluster_AppModule_declarations</title>
<polygon fill="none" stroke="#000000" points="374,-143 374,-195 766,-195 766,-143 374,-143"/>
</g>
<g id="clust9" class="cluster">
<title>cluster_AppModule_AppComponent_providers</title>
<polygon fill="none" stroke="#000000" points="488,-78 488,-130 766,-130 766,-78 488,-78"/>
</g>
<g id="clust12" class="cluster">
<title>cluster_AppModule_imports</title>
<polygon fill="none" stroke="#000000" points="244,-143 244,-195 366,-195 366,-143 244,-143"/>
</g>
<g id="clust14" class="cluster">
<title>cluster_AppModule_bootstrap</title>
<polygon fill="none" stroke="#000000" points="439,-276 439,-328 563,-328 563,-276 439,-276"/>
</g>
<!-- RouterModule.forRoot(args) -->
<g id="node1" class="node">
<title>RouterModule.forRoot(args)</title>
<polygon fill="#8dd3c7" stroke="#000000" points="206.8419,-122 203.8419,-126 182.8419,-126 179.8419,-122 29.1581,-122 29.1581,-86 206.8419,-86 206.8419,-122"/>
<text text-anchor="middle" x="118" y="-99.8" font-family="Times,serif" font-size="14.00" fill="#000000">RouterModule.forRoot(args)</text>
</g>
<!-- Angular2FirstappRoutingModule -->
<g id="node2" class="node">
<title>Angular2FirstappRoutingModule</title>
<polygon fill="#8dd3c7" stroke="#000000" points="219.924,-187 216.924,-191 195.924,-191 192.924,-187 16.076,-187 16.076,-151 219.924,-151 219.924,-187"/>
<text text-anchor="middle" x="118" y="-164.8" font-family="Times,serif" font-size="14.00" fill="#000000">Angular2FirstappRoutingModule</text>
</g>
<!-- RouterModule.forRoot(args)&#45;&gt;Angular2FirstappRoutingModule -->
<g id="edge1" class="edge">
<title>RouterModule.forRoot(args)&#45;&gt;Angular2FirstappRoutingModule</title>
<path fill="none" stroke="#000000" d="M118,-122.1061C118,-122.1061 118,-140.991 118,-140.991"/>
<polygon fill="#000000" stroke="#000000" points="114.5001,-140.9909 118,-150.991 121.5001,-140.991 114.5001,-140.9909"/>
</g>
<!-- RouterModule  -->
<g id="node3" class="node">
<title>RouterModule </title>
<polygon fill="#fb8072" stroke="#000000" points="168.6523,-252 67.3477,-252 67.3477,-216 168.6523,-216 168.6523,-252"/>
<text text-anchor="middle" x="118" y="-229.8" font-family="Times,serif" font-size="14.00" fill="#000000">RouterModule </text>
</g>
<!-- Angular2FirstappRoutingModule&#45;&gt;RouterModule  -->
<g id="edge2" class="edge">
<title>Angular2FirstappRoutingModule&#45;&gt;RouterModule </title>
<path fill="none" stroke="#000000" stroke-dasharray="5,2" d="M118,-187.1061C118,-187.1061 118,-205.991 118,-205.991"/>
<polygon fill="#000000" stroke="#000000" points="114.5001,-205.9909 118,-215.991 121.5001,-205.991 114.5001,-205.9909"/>
</g>
<!-- AppComponent -->
<g id="node4" class="node">
<title>AppComponent</title>
<polygon fill="#ffffb3" stroke="#000000" points="757.9399,-187 652.0601,-187 652.0601,-151 757.9399,-151 757.9399,-187"/>
<text text-anchor="middle" x="705" y="-164.8" font-family="Times,serif" font-size="14.00" fill="#000000">AppComponent</text>
</g>
<!-- AppModule -->
<g id="node7" class="node">
<title>AppModule</title>
<polygon fill="#8dd3c7" stroke="#000000" points="542.6571,-252 539.6571,-256 518.6571,-256 515.6571,-252 459.3429,-252 459.3429,-216 542.6571,-216 542.6571,-252"/>
<text text-anchor="middle" x="501" y="-229.8" font-family="Times,serif" font-size="14.00" fill="#000000">AppModule</text>
</g>
<!-- AppComponent&#45;&gt;AppModule -->
<g id="edge3" class="edge">
<title>AppComponent&#45;&gt;AppModule</title>
<path fill="none" stroke="#000000" d="M705,-187.1061C705,-206.3391 705,-234 705,-234 705,-234 552.7747,-234 552.7747,-234"/>
<polygon fill="#000000" stroke="#000000" points="552.7747,-230.5001 542.7747,-234 552.7747,-237.5001 552.7747,-230.5001"/>
</g>
<!-- ProductsComponent -->
<g id="node5" class="node">
<title>ProductsComponent</title>
<polygon fill="#ffffb3" stroke="#000000" points="634.3258,-187 503.6742,-187 503.6742,-151 634.3258,-151 634.3258,-187"/>
<text text-anchor="middle" x="569" y="-164.8" font-family="Times,serif" font-size="14.00" fill="#000000">ProductsComponent</text>
</g>
<!-- ProductsComponent&#45;&gt;AppModule -->
<g id="edge6" class="edge">
<title>ProductsComponent&#45;&gt;AppModule</title>
<path fill="none" stroke="#000000" d="M523.3328,-187.1061C523.3328,-187.1061 523.3328,-205.991 523.3328,-205.991"/>
<polygon fill="#000000" stroke="#000000" points="519.8328,-205.9909 523.3328,-215.991 526.8328,-205.991 519.8328,-205.9909"/>
</g>
<!-- AdsComponent -->
<g id="node6" class="node">
<title>AdsComponent</title>
<polygon fill="#ffffb3" stroke="#000000" points="485.8837,-187 382.1163,-187 382.1163,-151 485.8837,-151 485.8837,-187"/>
<text text-anchor="middle" x="434" y="-164.8" font-family="Times,serif" font-size="14.00" fill="#000000">AdsComponent</text>
</g>
<!-- AdsComponent&#45;&gt;AppModule -->
<g id="edge7" class="edge">
<title>AdsComponent&#45;&gt;AppModule</title>
<path fill="none" stroke="#000000" d="M472.5568,-187.1061C472.5568,-187.1061 472.5568,-205.991 472.5568,-205.991"/>
<polygon fill="#000000" stroke="#000000" points="469.0569,-205.9909 472.5568,-215.991 476.0569,-205.991 469.0569,-205.9909"/>
</g>
<!-- AppComponent  -->
<g id="node11" class="node">
<title>AppComponent </title>
<polygon fill="#80b1d3" stroke="#000000" points="555.439,-320 446.561,-320 446.561,-284 555.439,-284 555.439,-320"/>
<text text-anchor="middle" x="501" y="-297.8" font-family="Times,serif" font-size="14.00" fill="#000000">AppComponent </text>
</g>
<!-- AppModule&#45;&gt;AppComponent  -->
<g id="edge9" class="edge">
<title>AppModule&#45;&gt;AppComponent </title>
<path fill="none" stroke="#000000" stroke-dasharray="1,5" d="M501,-252.2228C501,-252.2228 501,-273.7269 501,-273.7269"/>
<polygon fill="#000000" stroke="#000000" points="497.5001,-273.7269 501,-283.7269 504.5001,-273.727 497.5001,-273.7269"/>
</g>
<!-- ProductService -->
<g id="node8" class="node">
<title>ProductService</title>
<ellipse fill="#fdb462" stroke="#000000" cx="688" cy="-104" rx="70.0616" ry="18"/>
<text text-anchor="middle" x="688" y="-99.8" font-family="Times,serif" font-size="14.00" fill="#000000">ProductService</text>
</g>
<!-- ProductService&#45;&gt;AppComponent -->
<g id="edge4" class="edge">
<title>ProductService&#45;&gt;AppComponent</title>
<path fill="none" stroke="#000000" d="M722.5732,-119.7347C722.5732,-119.7347 722.5732,-140.6451 722.5732,-140.6451"/>
<polygon fill="#000000" stroke="#000000" points="719.0733,-140.645 722.5732,-150.6451 726.0733,-140.6451 719.0733,-140.645"/>
</g>
<!-- AdService -->
<g id="node9" class="node">
<title>AdService</title>
<ellipse fill="#fdb462" stroke="#000000" cx="548" cy="-104" rx="51.5843" ry="18"/>
<text text-anchor="middle" x="548" y="-99.8" font-family="Times,serif" font-size="14.00" fill="#000000">AdService</text>
</g>
<!-- AdService&#45;&gt;AppComponent -->
<g id="edge5" class="edge">
<title>AdService&#45;&gt;AppComponent</title>
<path fill="none" stroke="#000000" d="M551.8145,-122.0449C551.8145,-129.749 551.8145,-137 551.8145,-137 551.8145,-137 687.4268,-137 687.4268,-137 687.4268,-137 687.4268,-140.7566 687.4268,-140.7566"/>
<polygon fill="#000000" stroke="#000000" points="683.9269,-140.7566 687.4268,-150.7566 690.9269,-140.7566 683.9269,-140.7566"/>
</g>
<!-- BrowserModule -->
<g id="node10" class="node">
<title>BrowserModule</title>
<polygon fill="#8dd3c7" stroke="#000000" points="358.4734,-187 355.4734,-191 334.4734,-191 331.4734,-187 251.5266,-187 251.5266,-151 358.4734,-151 358.4734,-187"/>
<text text-anchor="middle" x="305" y="-164.8" font-family="Times,serif" font-size="14.00" fill="#000000">BrowserModule</text>
</g>
<!-- BrowserModule&#45;&gt;AppModule -->
<g id="edge8" class="edge">
<title>BrowserModule&#45;&gt;AppModule</title>
<path fill="none" stroke="#000000" d="M305,-187.1061C305,-206.3391 305,-234 305,-234 305,-234 448.9531,-234 448.9531,-234"/>
<polygon fill="#000000" stroke="#000000" points="448.9531,-237.5001 458.9531,-234 448.953,-230.5001 448.9531,-237.5001"/>
</g>
</g>
</svg>
